# vtk DataFile Version 2.0
Deformed SOFA tetrahedral mesh
ASCII
DATASET UNSTRUCTURED_GRID
POINTS 164 double
185.38427906467888 2.1591069966556113 12.673092757189037
259.87502446067305 85.17974966966112 30.922593467909856
257.758084438787 85.86938162316213 35.41223724778949
183.60068810735754 3.056660118533919 17.25975806535068
-2.276147119977405e-07 -5.9467552067805943e-08 -2.500000020453112
-1.0052530788065572e-06 3.161429092015624e-07 2.50000085887569
2.673837328945663e-06 160.00000269469496 2.5000046042141597
-4.640914126991732e-06 159.99999711480675 -2.5000038093289394
184.9047430482083 161.7863293102677 -5.074204430855762
186.17686019916923 161.3191580800649 -9.88951671119371
213.37618261968493 9.794010073757335 24.332662129817958
237.96385217811545 27.993941459826033 30.33808824879612
254.19583929209392 54.662634880732064 33.00769973041776
211.37974220644492 10.790969965244136 28.819196247812155
235.99141003238134 28.916713604471553 34.84122701328189
252.11400329509715 55.428808423954045 37.48364974699835
5.067557890251168e-06 133.33333052743495 2.499999447184401
1.877526385862961e-05 106.66666424011544 2.5000116027391877
2.9751752609121224e-05 79.99999531643581 2.5000020555324878
1.1931772224140776e-05 53.33333674066189 2.500003336079617
3.014865405913928e-06 26.66666820353899 2.5000081845701017
-4.241769690509487e-06 133.3333371786278 -2.4999976760044036
-2.335041501040361e-05 106.66667103910376 -2.5000141720616544
-3.540227897958576e-05 80.00000252939455 -2.500005177193383
-1.629944307211608e-05 53.33333133174884 -2.500004051091649
-6.4297871585362905e-06 26.666663167665295 -2.5000071055367594
158.85908655939014 161.3479547849426 -9.53152262139558
132.38378866556783 161.09906231497578 -11.393460353378583
106.19876704988752 160.54550550777873 -11.045739545644265
80.02510411841814 160.4428470564379 -7.475289421435173
53.747205586337294 160.41158344444528 -2.5615864707161444
27.150119114090447 160.21938728334945 1.6687740700604041
159.535343427312 160.95745498595522 -14.525630701606607
132.5578253629134 160.90535142922442 -16.40025959202809
105.84888105797067 160.47670038168678 -16.078206657850778
79.34379994658579 160.45188300497657 -12.47202212774322
52.896666456779975 160.48226140819665 -7.529107312754549
26.6210306662468 160.27184079418458 -3.285540240265337
254.82817289077482 115.10538378826195 23.74607160061997
239.2323032822487 140.0442234064444 13.17491055567455
215.1361234588768 156.2066449308847 1.516648661225818
252.76164028775622 115.78986433588925 28.246286604458035
237.27081091656407 140.61073375757127 17.752388838768795
213.30155267039302 156.6804658123012 6.164132264991219
26.937495120458617 -0.13692549844688134 2.5803142104827415
53.6944734417464 -0.15191149501024845 1.0325976578610097
80.1727089942196 0.06039630739870974 -0.01965812411808887
106.61949358664356 0.48335456844312263 0.9296388133562381
132.88422543793936 1.1302070591723228 4.37780324799302
158.4173078680422 2.135231467972533 9.407845692738306
26.740383332927433 -0.2649286546495896 -2.4342432392642723
53.38708419708352 -0.470758370568355 -3.978484227684568
80.16351837211546 -0.5005630326163721 -5.035229421100149
106.99501469416829 -0.2203475403233645 -4.049353457334241
133.66386438706925 0.3502998718793219 -0.5321426149698061
159.65715790092426 1.2906046836616532 4.560314748917653
123.18263381247337 25.27719819699037 -6.145541943876441
172.4320328605638 137.81396827800847 -10.53236908501709
92.64813978200996 136.80904037180272 -14.416648412818525
66.58146518599514 23.09051848383079 -6.6792546363922325
170.6608961526615 25.227037975760442 3.462129678918969
23.681516368662976 95.41193968980737 -4.403806311284741
235.65434944810542 93.11908573487318 18.41658603243318
212.6386973520162 40.25205382720034 16.881524430849183
20.14816100498842 40.29403410161129 -3.1159522418223684
40.11026845528964 137.8159469978009 -5.7605133173907035
214.7307402508241 128.62211253700798 4.282373692696392
66.17224173144419 137.13987190381926 -10.271300326762985
79.42423989715813 113.20590570135988 -12.627696628450142
106.26408542707775 113.21990288961553 -14.789881005073708
92.88907862588509 90.25083155765559 -13.233455919185776
119.81369660686335 90.50752028949519 -13.869455979945084
66.85695196541346 89.27191066073358 -10.642346327435776
133.17427200274338 113.55369532925532 -14.319293608542491
146.50649954078705 90.10059493712784 -11.53718989651386
79.66598552036018 65.89579408256787 -10.97061466356409
134.33773955832382 67.70792537843617 -10.849079906251017
159.38476747441376 67.39914802366539 -6.382718343979099
173.3176997535501 90.69997703056178 -6.090259705640067
51.21761263702899 66.99246535782054 -7.870758021902886
184.33550635447224 67.75960056660888 0.6621588453691238
147.34330165008484 42.45123146923459 -5.0938568790151475
194.97814347861993 88.99331313952946 1.401446017497677
48.787945234454426 111.368281470465 -8.167129662387207
93.82379000952274 22.72626618416459 -7.736260501674915
103.06799549563777 45.77155338251194 -10.32020427785843
119.44685618260598 136.89030122846 -15.943939919049658
146.29291550525377 137.26250417724523 -14.29160110626242
24.285091272526692 67.63074407563076 -4.331516915095227
159.80228992242309 113.96401767497595 -10.999398935222418
190.17285972993824 114.77372162112285 -3.8600121271171344
212.975461085503 69.12336176255403 11.765357461862203
39.48431873248555 25.392387741636764 -4.214241485294826
21.960840157639915 120.27945770227396 -3.6372164756826963
191.25894556464004 44.99739054951917 7.172039449684885
58.94917397233412 46.19776879395985 -7.362500676278319
80.44553420303819 40.739201204999674 -9.004264119055273
107.95275800093832 68.94589703220342 -12.491624585333764
195.90127680876884 139.71529738215477 -4.272739304288134
146.92490696431102 19.00571250431934 -1.2375585744579745
42.879661342508946 86.07034873807693 -7.2794902499261935
237.5826746061489 69.42028257756851 22.801185846441893
169.93936864498377 48.625973757129046 -0.47501319647805706
196.03826669136936 23.225074635059777 13.410941012704686
19.948658288680452 140.17551825911173 -2.500027278023031
232.63138962937705 116.42320712482585 13.435909519742784
19.569282593562807 19.438296965624396 -2.5000096493771236
125.07976767592314 48.242396902138154 -9.25188767452199
37.51609118841241 51.826083357809026 -5.36838293645655
214.52327174386028 102.4514486609763 7.453967105058393
231.47475345927248 48.85082105340883 23.574313555822748
122.26027362140422 135.15940514833486 -10.818003801382295
170.94819246387328 25.509850386801304 8.80218709561762
93.3202671717519 23.694148836923265 -2.775155090400764
66.98028735942131 136.8429476954367 -5.311382129841361
169.79878065934054 137.62914534808516 -5.844656177955807
24.018390562632625 64.6541972793409 0.8391740191152166
232.05426538738723 94.85977197124515 22.074292312307087
208.08746238231396 42.27714396156132 20.054727142990057
20.379083521668235 119.59920574579846 1.5412319949172006
40.587913810837854 22.341586868589015 0.9056580837979602
211.50837295357476 125.69166922214828 8.747740732257125
66.92966680587773 23.26394021703624 -1.6594540560094848
80.22319799889615 47.06342418551233 -4.4658132629782825
106.50355414052856 47.35385341317467 -5.350864198790816
93.32790308687136 69.92548512923503 -7.061884213830226
119.59397950881404 70.23338854305312 -7.210014034481665
67.64693739447777 70.76835099456484 -4.973332691536935
132.91001829282916 47.77552627525698 -3.261708495842771
145.76123331512764 71.56746097628805 -4.560593056929708
79.95070601732877 93.9703526494675 -7.264425262237445
133.86367990014247 93.27592082470488 -8.07369833539669
158.33015889897405 94.72598429581339 -4.746733863275048
172.08844116189582 72.36706057041704 1.2885953830741794
51.79492971177247 92.87186595806229 -3.5783540125955975
182.33634469865166 95.44460585014139 1.2184154577947854
146.32396893892408 118.93993189193777 -8.182887166885175
197.07381497550497 71.07241988609451 10.328565393273589
49.53922404113512 49.00812263277967 -1.5201768960109519
93.74024794534488 137.2692264927589 -9.4793943026714
102.96600280502 114.26096099472012 -9.607845158313497
145.68790074627663 24.96163511273344 2.7958678442869385
119.78377759498203 24.031381296245172 -1.2350991750373792
24.94617481156539 92.36511166535013 0.49102849668528403
158.73563893388334 48.690423700090506 1.6549946409385043
183.710288933711 47.33979477922291 9.33207848201049
226.3541925024572 67.31925855343911 23.497496233845364
40.15941132680039 134.39872435817273 -0.7755076893260924
22.47896861617996 39.89999119297114 1.797610614661047
59.41420789549046 113.74824257444135 -4.687285976856122
80.58494257935848 119.15997628604867 -7.7165483766299285
107.97984722316986 91.26648210480303 -8.927099885943555
208.78576377188512 96.6644408885915 11.299062544235642
189.54157029113662 118.96341342758615 0.7785388051257378
191.83933565649687 25.685232689756397 16.672526963481154
146.07037597079884 142.84609827937277 -9.642784467624553
43.56135377858778 73.85934315618124 -2.0911496513078234
168.61487530961455 113.99020991616909 -3.914892457782856
194.5316795181471 140.84964144993617 0.4163631348252297
19.948712394531846 19.824495386355977 2.500006001531491
230.3625586642257 116.58822089011682 17.932589746839405
19.569333519320498 140.56168860502567 2.500016058569174
124.60745189375804 112.31740379264964 -9.570813588411005
38.23325743690552 108.14257915120993 -1.4486841137434907
CELLS 412 2060
4 2 15 146 101
4 138 116 108 148
4 83 93 61 163
4 129 133 144 77
4 141 128 144 81
4 72 79 75 127
4 72 130 134 127
4 135 152 137 82
4 70 151 130 125
4 75 97 70 125
4 73 87 136 89
4 83 68 67 149
4 95 138 122 123
4 74 89 132 78
4 89 90 157 78
4 126 129 128 76
4 131 71 73 74
4 137 82 91 80
4 146 137 152 91
4 90 157 57 89
4 137 145 133 80
4 125 75 123 127
4 72 70 68 130
4 83 100 72 134
4 79 156 138 127
4 133 145 144 102
4 129 131 132 74
4 129 74 77 76
4 78 133 77 80
4 137 146 118 91
4 70 71 69 151
4 125 124 97 126
4 126 71 151 131
4 97 71 126 76
4 132 135 133 78
4 78 90 135 82
4 126 124 107 128
4 162 71 69 73
4 123 95 138 127
4 83 72 68 149
4 100 134 143 156
4 100 88 79 156
4 80 91 137 94
4 125 97 151 126
4 71 70 97 151
4 144 77 102 81
4 97 75 85 125
4 151 140 70 130
4 112 144 145 102
4 152 82 109 91
4 155 33 32 87
4 49 48 141 99
4 71 162 151 131
4 126 107 97 76
4 69 86 162 73
4 132 136 157 89
4 124 142 107 128
4 91 101 146 110
4 68 58 67 150
4 96 122 113 123
4 160 152 121 109
4 131 129 126 76
4 74 131 71 76
4 136 131 162 73
4 128 107 76 81
4 79 95 75 127
4 134 130 72 149
4 43 42 121 66
4 132 133 129 77
4 132 74 78 77
4 56 84 53 142
4 149 147 83 163
4 92 95 108 138
4 111 28 86 139
4 137 118 145 94
4 50 51 92 120
4 31 147 65 30
4 128 142 56 141
4 111 86 87 73
4 155 136 111 87
4 130 150 68 149
4 96 75 95 123
4 141 56 81 99
4 56 107 128 81
4 140 150 68 130
4 75 96 85 123
4 118 154 145 94
4 136 162 111 73
4 135 137 133 80
4 141 112 49 99
4 76 77 129 81
4 136 132 131 74
4 58 68 69 140
4 85 113 124 123
4 129 144 128 81
4 93 83 65 147
4 92 138 148 120
4 142 53 56 54
4 30 147 65 114
4 111 86 28 27
4 90 135 157 78
4 152 109 62 91
4 87 32 155 57
4 14 13 118 63
4 137 135 82 80
4 86 34 27 33
4 158 43 121 66
4 13 154 118 103
4 17 61 119 143
4 88 24 64 116
4 133 77 80 102
4 89 136 73 74
4 154 13 3 103
4 125 130 75 127
4 70 72 75 130
4 95 138 120 122
4 83 67 65 149
4 142 47 53 48
4 84 59 52 113
4 139 29 58 114
4 102 94 145 60
4 113 47 84 142
4 46 47 84 113
4 86 34 28 27
4 93 83 147 163
4 138 108 92 148
4 53 142 48 54
4 113 85 96 123
4 68 58 150 140
4 19 64 148 20
4 120 92 95 122
4 58 86 34 139
4 58 34 35 139
4 21 22 93 119
4 145 80 94 102
4 135 132 157 78
4 147 83 65 149
4 138 92 95 120
4 86 58 69 140
4 85 113 142 124
4 61 23 18 22
4 23 18 19 116
4 103 154 94 60
4 122 52 59 113
4 29 67 58 114
4 122 46 52 113
4 57 98 153 90
4 35 67 58 29
4 100 61 88 143
4 116 88 143 156
4 86 111 139 140
4 84 56 85 142
4 18 17 61 22
4 23 19 24 116
4 40 158 9 98
4 49 112 3 55
4 29 36 35 67
4 52 45 46 122
4 83 134 149 163
4 79 108 95 138
4 45 120 50 44
4 15 146 101 110
4 39 43 66 42
4 36 37 65 30
4 17 18 61 143
4 24 88 23 116
4 43 39 66 40
4 110 14 118 63
4 146 62 101 91
4 47 84 53 46
4 123 124 85 125
4 70 69 68 140
4 47 53 84 142
4 35 28 139 34
4 28 35 139 29
4 84 52 53 46
4 29 36 67 30
4 52 51 45 122
4 28 34 86 139
4 58 86 139 140
4 50 51 120 45
4 31 65 37 30
4 113 84 85 142
4 29 30 67 114
4 51 52 59 122
4 41 160 42 105
4 8 26 32 57
4 60 0 112 55
4 19 25 64 20
4 92 59 95 122
4 152 135 153 90
4 16 7 161 21
4 106 5 4 44
4 6 7 37 161
4 41 39 105 42
4 1 15 101 12
4 5 25 106 4
4 7 16 161 6
4 39 41 105 38
4 4 50 106 44
4 161 37 6 31
4 5 106 159 44
4 104 37 7 161
4 51 120 45 122
4 67 36 65 30
4 30 65 67 114
4 145 133 80 102
4 104 7 21 161
4 14 10 63 11
4 112 0 3 55
4 91 118 94 63
4 32 27 155 26
4 48 49 55 99
4 27 32 155 33
4 25 19 64 24
4 21 17 22 119
4 21 16 17 119
4 26 8 115 57
4 8 40 158 9
4 10 14 63 13
4 162 140 69 151
4 85 107 97 124
4 48 55 54 99
4 152 153 121 109
4 40 8 158 43
4 41 2 117 62
4 40 66 158 98
4 103 118 13 63
4 61 93 22 119
4 116 19 64 148
4 10 3 103 0
4 152 135 90 82
4 119 61 163 143
4 88 64 108 116
4 9 8 32 57
4 115 8 158 57
4 103 13 10 63
4 153 157 57 90
4 158 9 98 57
4 73 136 131 74
4 76 129 128 81
4 77 133 144 102
4 50 92 106 120
4 161 147 65 31
4 144 129 77 81
4 59 84 96 113
4 114 58 139 150
4 98 153 158 57
4 10 3 13 103
4 122 96 95 123
4 150 67 68 149
4 141 56 128 81
4 87 136 111 73
4 42 66 39 105
4 22 17 61 119
4 19 64 24 116
4 56 107 142 128
4 86 111 162 73
4 11 15 12 110
4 38 2 41 62
4 38 2 62 1
4 140 68 70 130
4 123 85 75 125
4 115 158 153 57
4 147 93 163 119
4 108 64 92 148
4 88 100 143 156
4 122 59 96 113
4 114 67 58 150
4 74 132 129 77
4 15 1 101 2
4 153 157 115 57
4 72 83 134 149
4 95 79 138 127
4 156 79 134 127
4 72 100 79 134
4 158 43 66 40
4 133 132 78 77
4 154 112 94 60
4 132 136 89 74
4 157 153 135 90
4 131 126 71 76
4 89 157 132 78
4 128 107 126 76
4 118 137 91 94
4 8 9 158 57
4 162 69 71 151
4 124 107 97 126
4 131 71 162 73
4 112 145 154 94
4 29 58 35 139
4 46 84 52 113
4 130 75 70 125
4 79 72 134 127
4 109 66 121 105
4 154 0 3 112
4 94 112 145 60
4 123 75 95 127
4 130 68 72 149
4 82 90 152 109
4 134 100 79 156
4 102 145 112 60
4 84 85 96 113
4 58 139 150 140
4 59 96 95 122
4 150 114 67 149
4 62 1 2 101
4 153 152 90 109
4 20 25 64 159
4 130 72 75 127
4 11 14 15 110
4 64 148 20 159
4 129 131 74 76
4 104 21 93 119
4 25 106 64 159
4 11 14 110 63
4 135 78 82 80
4 78 135 133 80
4 151 70 97 125
4 140 70 69 151
4 124 97 85 125
4 101 12 15 110
4 163 93 61 119
4 64 108 116 148
4 82 152 137 91
4 109 121 160 105
4 103 94 118 63
4 97 71 151 126
4 80 137 145 94
4 94 118 154 103
4 3 0 154 103
4 146 15 14 110
4 146 14 118 110
4 146 2 62 117
4 146 62 2 101
4 116 138 79 156
4 79 138 116 108
4 79 88 116 156
4 116 88 79 108
4 143 61 134 100
4 143 134 61 163
4 83 134 61 100
4 83 61 134 163
4 152 146 62 117
4 62 146 152 91
4 99 112 81 141
4 99 81 112 60
4 144 81 112 141
4 154 60 0 112
4 0 60 154 103
4 89 136 57 87
4 155 136 57 115
4 155 57 136 87
4 116 23 143 88
4 116 143 23 18
4 61 143 23 88
4 61 23 143 18
4 142 85 107 56
4 107 85 142 124
4 86 140 162 111
4 162 140 86 69
4 27 86 155 111
4 27 155 86 33
4 87 155 86 111
4 87 86 155 33
4 160 62 109 105
4 142 54 99 48
4 99 54 142 56
4 99 141 142 48
4 142 141 99 56
4 92 122 51 59
4 51 122 92 120
4 114 65 149 147
4 114 149 65 67
4 160 62 41 117
4 55 112 99 49
4 55 99 112 60
4 26 57 155 32
4 155 57 26 115
4 41 105 62 160
4 62 105 41 38
4 118 110 91 146
4 118 91 110 63
4 152 62 160 117
4 160 62 152 109
4 66 158 153 121
4 153 158 66 98
4 66 90 153 98
4 25 159 5 106
4 5 159 25 20
4 21 161 119 104
4 119 161 21 16
4 106 44 120 159
4 120 44 106 50
4 161 37 65 104
4 161 65 37 31
4 105 121 42 66
4 105 42 121 160
4 104 119 147 161
4 147 119 104 93
4 147 65 104 161
4 104 65 147 93
4 159 120 92 148
4 92 120 159 106
4 92 64 159 148
4 159 64 92 106
4 81 112 102 144
4 81 102 112 60
4 136 57 157 89
4 136 157 57 115
4 153 66 109 90
4 109 66 153 121
CELL_TYPES 412
10
10
10
10
10
10
10
10
10
10
10
10
10
10
10
10
10
10
10
10
10
10
10
10
10
10
10
10
10
10
10
10
10
10
10
10
10
10
10
10
10
10
10
10
10
10
10
10
10
10
10
10
10
10
10
10
10
10
10
10
10
10
10
10
10
10
10
10
10
10
10
10
10
10
10
10
10
10
10
10
10
10
10
10
10
10
10
10
10
10
10
10
10
10
10
10
10
10
10
10
10
10
10
10
10
10
10
10
10
10
10
10
10
10
10
10
10
10
10
10
10
10
10
10
10
10
10
10
10
10
10
10
10
10
10
10
10
10
10
10
10
10
10
10
10
10
10
10
10
10
10
10
10
10
10
10
10
10
10
10
10
10
10
10
10
10
10
10
10
10
10
10
10
10
10
10
10
10
10
10
10
10
10
10
10
10
10
10
10
10
10
10
10
10
10
10
10
10
10
10
10
10
10
10
10
10
10
10
10
10
10
10
10
10
10
10
10
10
10
10
10
10
10
10
10
10
10
10
10
10
10
10
10
10
10
10
10
10
10
10
10
10
10
10
10
10
10
10
10
10
10
10
10
10
10
10
10
10
10
10
10
10
10
10
10
10
10
10
10
10
10
10
10
10
10
10
10
10
10
10
10
10
10
10
10
10
10
10
10
10
10
10
10
10
10
10
10
10
10
10
10
10
10
10
10
10
10
10
10
10
10
10
10
10
10
10
10
10
10
10
10
10
10
10
10
10
10
10
10
10
10
10
10
10
10
10
10
10
10
10
10
10
10
10
10
10
10
10
10
10
10
10
10
10
10
10
10
10
10
10
10
10
10
10
10
10
10
10
10
10
10
10
10
10
10
10
10
10
10
10
10
10
10
10
10
10
10
10
10
10
10
10
10
10
10
10
10
10
10
10
10
10
10
10
10
10
10
10
10
10
10
10

