# vtk DataFile Version 2.0
Deformed SOFA tetrahedral mesh
ASCII
DATASET UNSTRUCTURED_GRID
POINTS 164 double
183.01344048783642 -3.6315029325543 -19.01794936294725
260.9549584907177 71.20643663511255 16.675125838843115
259.0888184215097 70.81440047387723 21.310473181561967
181.74336380581184 -4.0621647745374405 -14.209679026833976
-4.828503296934973e-06 4.179467849139133e-06 -2.499996348822241
3.1402811715195863e-06 -3.7728198748930882e-06 2.4999974195039005
7.594138517865938e-07 160.00000034451023 2.5000016164608074
-1.216363545912476e-06 159.99999950271425 -2.5000007000254545
187.38650205709442 155.59077630490012 2.6265287563836277
188.54308051123223 156.06803829722884 -2.2107820203142774
212.27225993691462 0.6361838303772291 -7.357594670505857
237.55898726659797 16.2819820157829 2.4314405937249743
254.5771931176174 41.17482017074293 11.159997449693073
210.5461029491711 0.3333530283958499 -2.665585218389527
235.8334059760301 15.947568728585363 7.113391444713424
252.7614021715479 40.76071853185967 15.796228605182254
3.4172084828508227e-06 133.33333138741 2.4999990394422893
1.5458713897729327e-05 106.66666424796458 2.500012606356106
3.147193141387826e-05 79.99999089400457 2.4999989065372117
1.6180439943816916e-05 53.33333693316953 2.50000558101942
5.0705259328061226e-06 26.66666913940418 2.5000115346310987
-2.47119374564494e-06 133.33333554742086 -2.499997366600574
-2.0080539097971092e-05 106.666672480561 -2.5000134338667785
-3.7468575728252976e-05 80.0000073791938 -2.500001193055068
-2.205359057399397e-05 53.333332088538626 -2.5000061802081492
-9.629730584701447e-06 26.66666174729557 -2.500009441548237
161.19505202028105 157.051133229962 -1.584797618278416
134.51742191243278 158.21549706761593 -3.6886300538839123
107.91310939286261 159.0559798986333 -4.405009864068631
81.15683093138325 159.6275444923806 -3.002573493235195
54.3281423233347 159.91802926017957 -0.2542397008842161
27.23081304758518 160.06715982089938 2.3156266994116304
161.84490836175982 157.58491841778184 -6.560802342703955
134.79304601219002 158.79395077386013 -8.638805665619156
107.82293561213268 159.61875158000026 -9.407922548698526
80.7861655419042 160.0908414725673 -7.980419686406644
53.77790959021606 160.20505328764526 -5.241162729167197
26.912160890470833 160.1865145505038 -2.668012626679392
256.70609534976404 102.03853055598894 17.06345362670163
241.58056748686178 129.08781427921318 13.192947012663387
217.65076585023454 148.0456205400182 6.442927256211701
254.8855720092099 101.70576950725028 21.711248329483794
239.86098690158212 128.69567331373293 17.88304491743655
216.04426085177428 147.59237852554514 11.173639402925978
26.899326264598834 -0.3323371811763127 1.4320508728265782
53.021413958418606 -0.3821931061781279 -4.16220522402026
78.44787622970593 -0.8755194481886138 -10.763528871536284
104.17910031584947 -1.398700121463739 -16.19447793922594
130.2937478003618 -1.9375473543535828 -18.260918876945773
156.0362896294446 -2.9070017883461627 -17.90484110113357
26.1955896574012 -0.34287166428926097 -3.584137085857307
51.88799776318508 -0.4064268140030112 -9.089819008599084
77.42306139229035 -0.8075222795717296 -15.699705170263057
103.47803308381131 -1.2243066386063568 -21.224059375752468
130.1611542551336 -1.6430335926926394 -23.274427558197
156.47628741574133 -2.4472073916433477 -22.9934170861137
120.44497026076932 24.16258341998593 -21.62262322110101
173.85551125925085 133.68690859579522 -7.3219270415590545
93.72828448095505 136.43993897729902 -11.25135929120838
65.02220941529686 23.20495462600874 -12.430843014790431
168.26398108084553 20.996303368723524 -19.35350577056458
23.70962066822371 95.50139872812385 -4.220874993853258
236.51841752110965 82.34910304126312 7.793256621569447
211.88621978515764 31.839812348134434 -5.771138138432055
20.033744444047432 40.36571181689307 -3.5358860251577076
40.46189420878501 137.82387131198206 -4.6681754847938794
216.28229462498237 120.51200103502312 3.386389719572359
66.91769305464523 136.89623745529806 -8.411880866422688
79.64735571698041 113.16607969223746 -11.784344692728009
106.561700966514 112.69621346812468 -14.378195858295655
92.48322543407168 90.138315139228 -15.095100958741114
119.34601189146314 89.68449459222299 -16.973950958931628
66.60162087518698 89.40939647290108 -11.621329708979589
133.48949695322398 111.97807998790412 -14.399107581388547
146.14953888882306 87.9924579729756 -16.283985132490024
78.69153781352016 65.95456204420468 -14.773289082497298
133.15720245156245 66.27805513161212 -18.898445540204655
158.33354189173104 64.49582455551636 -17.005103985164425
173.0909959213624 86.8143858021248 -12.613279844594382
50.738914763932115 67.16775692254437 -9.694130555537
183.60673673484405 62.780309142095945 -12.212678022915222
145.19668764496143 40.16343322642294 -20.093237717904383
194.97781253712694 83.02587217899884 -7.153722515948595
48.985818285450996 111.41918460395277 -7.428412306483206
91.30220262888832 22.336719086681722 -18.372893946037625
101.19509119202435 45.397158843023576 -18.7484255721396
120.63459003583313 135.70434215356613 -12.07716539868741
147.5472663725825 134.79094531200948 -10.494390042203163
24.157668957010856 67.78452109210897 -4.638981426196926
160.2454930020586 110.85317492507802 -11.881233213607773
190.840813663188 109.35355980482379 -6.171322012739717
212.7594811463853 61.0032404439692 -3.075288950554179
38.761254856659974 25.38292973334779 -6.459489622403756
22.12197243193632 120.2997566085032 -3.2587526346366045
190.09876414535927 38.99683823979165 -12.402668740448226
57.837064326274444 46.282377495188356 -11.331489309830427
78.7188304032036 40.62131413135018 -15.54154417475596
106.78624142137203 68.52707395877944 -18.04718603536478
197.55167971471843 133.58668405472832 -1.6416577756635982
144.0582282514563 16.40155353267432 -21.98488994261125
42.79121138515731 86.22852065399675 -7.7604388012905785
237.86047936797354 58.23532580955816 6.177355957568707
168.37991608024663 44.67143133118551 -16.813933945990648
194.55429801444407 16.416701190437756 -12.808605287410597
19.948674366120553 140.17552455688823 -2.5000117346711583
234.10338701069054 106.19084169499806 8.60085412918871
19.56925232762001 19.43830450508017 -2.5000049217937015
123.0828854209751 47.16092406698975 -20.064266736164427
36.998410653790856 51.92577428674734 -7.092759712348284
215.25030653438367 94.32630685413748 0.6516945570969429
231.25367503089478 38.25087138634499 1.8567003255692787
123.33643108605999 133.10612449016307 -7.2494322314155255
169.16358141069335 19.849236884048857 -14.196062087200591
91.78579563659558 22.61087972088499 -13.309394474645018
67.48590096982811 136.33273242349065 -3.450067992883074
171.30305034553416 132.69493002868012 -2.7015562530893646
24.060899939154787 64.72215245800524 0.5107670555301662
233.1748218301637 83.24293623063743 11.966110829119412
207.56604038035957 32.92517855622318 -1.8983903600397127
20.428564477671056 119.62359119700663 1.8781923043232767
40.41388341249207 22.192956260292473 -1.5760450746389822
213.1645417455889 116.76534836021868 7.285546028372233
66.17030124136748 23.021169039010005 -7.498673238319929
79.23900099635976 46.46731589197471 -10.40262587383432
105.27978792789224 46.0727814956095 -14.09772567422461
92.68189683496304 69.13283057888945 -11.450840968682687
118.8504697879448 68.59408419860561 -13.653533365992951
67.3093145014146 70.49100600492393 -7.521844143036873
131.51516531362375 45.31273072147832 -15.285526289365496
145.2051082612445 68.46116202208412 -13.048845621461853
79.86099341205968 93.52481094735758 -8.252368559701349
133.78609080095072 90.94809095917269 -11.62282442779781
158.43513207185987 90.80187695763252 -9.438070387025927
171.69233066035525 67.30772119112436 -9.498065302448728
51.824735862799216 92.77115480173609 -3.8721550552831605
182.6134032149892 89.57180340311128 -5.007882636047782
146.95868055833037 115.69685950435951 -7.782616023715253
196.92170126419296 63.41481211472744 -2.9302228005363116
49.229392436181975 48.91350594846839 -4.395274723712521
94.58492841317684 136.36149071033148 -6.2643518689434625
103.29600214882974 113.20516096127743 -9.0952133310107
143.72092335729045 21.226312850682568 -16.460290590607556
117.83698931875573 21.994910406751366 -16.525588364418127
24.98054388030711 92.40215834764403 0.6341382909016113
157.53803716356083 44.35686745931976 -13.529197679824545
182.87951815146758 40.72602448090955 -9.06077152588125
226.6419475598303 56.15876947543299 6.982353723488316
40.3031303293672 134.34014708120705 0.23854544430942992
22.58695389240558 39.97133845983818 1.2713844120429767
59.60473415850211 113.48964067223687 -3.742382209524367
80.89694579120315 118.66199158912285 -6.414717534400789
107.75859370600227 90.13640726534283 -11.414261788306321
209.5148791791076 87.91343233154915 3.3842514653456774
190.57388190406832 112.45939812641771 -0.7152412684891898
190.72993870024013 17.821480898712394 -8.643269159983534
147.5642156563594 139.46496918666318 -4.934899536098936
43.55539635902459 73.81302325085977 -3.07892636995534
169.31272908773423 109.17970627889096 -5.332742283540819
196.40529577859405 133.7582479942086 3.246326852153844
19.94873877289358 19.824486668086642 2.4999929637473195
232.0723303600784 105.38126956419133 13.145021409150363
19.569320708046863 140.5616831039701 2.5000063619107067
124.92377461352521 110.36791673353358 -9.70586648076053
38.34024329915645 108.10195515178442 -0.9107348819507655
CELLS 412 2060
4 2 15 146 101
4 138 116 108 148
4 83 93 61 163
4 129 133 144 77
4 141 128 144 81
4 72 79 75 127
4 72 130 134 127
4 135 152 137 82
4 70 151 130 125
4 75 97 70 125
4 73 87 136 89
4 83 68 67 149
4 95 138 122 123
4 74 89 132 78
4 89 90 157 78
4 126 129 128 76
4 131 71 73 74
4 137 82 91 80
4 146 137 152 91
4 90 157 57 89
4 137 145 133 80
4 125 75 123 127
4 72 70 68 130
4 83 100 72 134
4 79 156 138 127
4 133 145 144 102
4 129 131 132 74
4 129 74 77 76
4 78 133 77 80
4 137 146 118 91
4 70 71 69 151
4 125 124 97 126
4 126 71 151 131
4 97 71 126 76
4 132 135 133 78
4 78 90 135 82
4 126 124 107 128
4 162 71 69 73
4 123 95 138 127
4 83 72 68 149
4 100 134 143 156
4 100 88 79 156
4 80 91 137 94
4 125 97 151 126
4 71 70 97 151
4 144 77 102 81
4 97 75 85 125
4 151 140 70 130
4 112 144 145 102
4 152 82 109 91
4 155 33 32 87
4 49 48 141 99
4 71 162 151 131
4 126 107 97 76
4 69 86 162 73
4 132 136 157 89
4 124 142 107 128
4 91 101 146 110
4 68 58 67 150
4 96 122 113 123
4 160 152 121 109
4 131 129 126 76
4 74 131 71 76
4 136 131 162 73
4 128 107 76 81
4 79 95 75 127
4 134 130 72 149
4 43 42 121 66
4 132 133 129 77
4 132 74 78 77
4 56 84 53 142
4 149 147 83 163
4 92 95 108 138
4 111 28 86 139
4 137 118 145 94
4 50 51 92 120
4 31 147 65 30
4 128 142 56 141
4 111 86 87 73
4 155 136 111 87
4 130 150 68 149
4 96 75 95 123
4 141 56 81 99
4 56 107 128 81
4 140 150 68 130
4 75 96 85 123
4 118 154 145 94
4 136 162 111 73
4 135 137 133 80
4 141 112 49 99
4 76 77 129 81
4 136 132 131 74
4 58 68 69 140
4 85 113 124 123
4 129 144 128 81
4 93 83 65 147
4 92 138 148 120
4 142 53 56 54
4 30 147 65 114
4 111 86 28 27
4 90 135 157 78
4 152 109 62 91
4 87 32 155 57
4 14 13 118 63
4 137 135 82 80
4 86 34 27 33
4 158 43 121 66
4 13 154 118 103
4 17 61 119 143
4 88 24 64 116
4 133 77 80 102
4 89 136 73 74
4 154 13 3 103
4 125 130 75 127
4 70 72 75 130
4 95 138 120 122
4 83 67 65 149
4 142 47 53 48
4 84 59 52 113
4 139 29 58 114
4 102 94 145 60
4 113 47 84 142
4 46 47 84 113
4 86 34 28 27
4 93 83 147 163
4 138 108 92 148
4 53 142 48 54
4 113 85 96 123
4 68 58 150 140
4 19 64 148 20
4 120 92 95 122
4 58 86 34 139
4 58 34 35 139
4 21 22 93 119
4 145 80 94 102
4 135 132 157 78
4 147 83 65 149
4 138 92 95 120
4 86 58 69 140
4 85 113 142 124
4 61 23 18 22
4 23 18 19 116
4 103 154 94 60
4 122 52 59 113
4 29 67 58 114
4 122 46 52 113
4 57 98 153 90
4 35 67 58 29
4 100 61 88 143
4 116 88 143 156
4 86 111 139 140
4 84 56 85 142
4 18 17 61 22
4 23 19 24 116
4 40 158 9 98
4 49 112 3 55
4 29 36 35 67
4 52 45 46 122
4 83 134 149 163
4 79 108 95 138
4 45 120 50 44
4 15 146 101 110
4 39 43 66 42
4 36 37 65 30
4 17 18 61 143
4 24 88 23 116
4 43 39 66 40
4 110 14 118 63
4 146 62 101 91
4 47 84 53 46
4 123 124 85 125
4 70 69 68 140
4 47 53 84 142
4 35 28 139 34
4 28 35 139 29
4 84 52 53 46
4 29 36 67 30
4 52 51 45 122
4 28 34 86 139
4 58 86 139 140
4 50 51 120 45
4 31 65 37 30
4 113 84 85 142
4 29 30 67 114
4 51 52 59 122
4 41 160 42 105
4 8 26 32 57
4 60 0 112 55
4 19 25 64 20
4 92 59 95 122
4 152 135 153 90
4 16 7 161 21
4 106 5 4 44
4 6 7 37 161
4 41 39 105 42
4 1 15 101 12
4 5 25 106 4
4 7 16 161 6
4 39 41 105 38
4 4 50 106 44
4 161 37 6 31
4 5 106 159 44
4 104 37 7 161
4 51 120 45 122
4 67 36 65 30
4 30 65 67 114
4 145 133 80 102
4 104 7 21 161
4 14 10 63 11
4 112 0 3 55
4 91 118 94 63
4 32 27 155 26
4 48 49 55 99
4 27 32 155 33
4 25 19 64 24
4 21 17 22 119
4 21 16 17 119
4 26 8 115 57
4 8 40 158 9
4 10 14 63 13
4 162 140 69 151
4 85 107 97 124
4 48 55 54 99
4 152 153 121 109
4 40 8 158 43
4 41 2 117 62
4 40 66 158 98
4 103 118 13 63
4 61 93 22 119
4 116 19 64 148
4 10 3 103 0
4 152 135 90 82
4 119 61 163 143
4 88 64 108 116
4 9 8 32 57
4 115 8 158 57
4 103 13 10 63
4 153 157 57 90
4 158 9 98 57
4 73 136 131 74
4 76 129 128 81
4 77 133 144 102
4 50 92 106 120
4 161 147 65 31
4 144 129 77 81
4 59 84 96 113
4 114 58 139 150
4 98 153 158 57
4 10 3 13 103
4 122 96 95 123
4 150 67 68 149
4 141 56 128 81
4 87 136 111 73
4 42 66 39 105
4 22 17 61 119
4 19 64 24 116
4 56 107 142 128
4 86 111 162 73
4 11 15 12 110
4 38 2 41 62
4 38 2 62 1
4 140 68 70 130
4 123 85 75 125
4 115 158 153 57
4 147 93 163 119
4 108 64 92 148
4 88 100 143 156
4 122 59 96 113
4 114 67 58 150
4 74 132 129 77
4 15 1 101 2
4 153 157 115 57
4 72 83 134 149
4 95 79 138 127
4 156 79 134 127
4 72 100 79 134
4 158 43 66 40
4 133 132 78 77
4 154 112 94 60
4 132 136 89 74
4 157 153 135 90
4 131 126 71 76
4 89 157 132 78
4 128 107 126 76
4 118 137 91 94
4 8 9 158 57
4 162 69 71 151
4 124 107 97 126
4 131 71 162 73
4 112 145 154 94
4 29 58 35 139
4 46 84 52 113
4 130 75 70 125
4 79 72 134 127
4 109 66 121 105
4 154 0 3 112
4 94 112 145 60
4 123 75 95 127
4 130 68 72 149
4 82 90 152 109
4 134 100 79 156
4 102 145 112 60
4 84 85 96 113
4 58 139 150 140
4 59 96 95 122
4 150 114 67 149
4 62 1 2 101
4 153 152 90 109
4 20 25 64 159
4 130 72 75 127
4 11 14 15 110
4 64 148 20 159
4 129 131 74 76
4 104 21 93 119
4 25 106 64 159
4 11 14 110 63
4 135 78 82 80
4 78 135 133 80
4 151 70 97 125
4 140 70 69 151
4 124 97 85 125
4 101 12 15 110
4 163 93 61 119
4 64 108 116 148
4 82 152 137 91
4 109 121 160 105
4 103 94 118 63
4 97 71 151 126
4 80 137 145 94
4 94 118 154 103
4 3 0 154 103
4 146 15 14 110
4 146 14 118 110
4 146 2 62 117
4 146 62 2 101
4 116 138 79 156
4 79 138 116 108
4 79 88 116 156
4 116 88 79 108
4 143 61 134 100
4 143 134 61 163
4 83 134 61 100
4 83 61 134 163
4 152 146 62 117
4 62 146 152 91
4 99 112 81 141
4 99 81 112 60
4 144 81 112 141
4 154 60 0 112
4 0 60 154 103
4 89 136 57 87
4 155 136 57 115
4 155 57 136 87
4 116 23 143 88
4 116 143 23 18
4 61 143 23 88
4 61 23 143 18
4 142 85 107 56
4 107 85 142 124
4 86 140 162 111
4 162 140 86 69
4 27 86 155 111
4 27 155 86 33
4 87 155 86 111
4 87 86 155 33
4 160 62 109 105
4 142 54 99 48
4 99 54 142 56
4 99 141 142 48
4 142 141 99 56
4 92 122 51 59
4 51 122 92 120
4 114 65 149 147
4 114 149 65 67
4 160 62 41 117
4 55 112 99 49
4 55 99 112 60
4 26 57 155 32
4 155 57 26 115
4 41 105 62 160
4 62 105 41 38
4 118 110 91 146
4 118 91 110 63
4 152 62 160 117
4 160 62 152 109
4 66 158 153 121
4 153 158 66 98
4 66 90 153 98
4 25 159 5 106
4 5 159 25 20
4 21 161 119 104
4 119 161 21 16
4 106 44 120 159
4 120 44 106 50
4 161 37 65 104
4 161 65 37 31
4 105 121 42 66
4 105 42 121 160
4 104 119 147 161
4 147 119 104 93
4 147 65 104 161
4 104 65 147 93
4 159 120 92 148
4 92 120 159 106
4 92 64 159 148
4 159 64 92 106
4 81 112 102 144
4 81 102 112 60
4 136 57 157 89
4 136 157 57 115
4 153 66 109 90
4 109 66 153 121
CELL_TYPES 412
10
10
10
10
10
10
10
10
10
10
10
10
10
10
10
10
10
10
10
10
10
10
10
10
10
10
10
10
10
10
10
10
10
10
10
10
10
10
10
10
10
10
10
10
10
10
10
10
10
10
10
10
10
10
10
10
10
10
10
10
10
10
10
10
10
10
10
10
10
10
10
10
10
10
10
10
10
10
10
10
10
10
10
10
10
10
10
10
10
10
10
10
10
10
10
10
10
10
10
10
10
10
10
10
10
10
10
10
10
10
10
10
10
10
10
10
10
10
10
10
10
10
10
10
10
10
10
10
10
10
10
10
10
10
10
10
10
10
10
10
10
10
10
10
10
10
10
10
10
10
10
10
10
10
10
10
10
10
10
10
10
10
10
10
10
10
10
10
10
10
10
10
10
10
10
10
10
10
10
10
10
10
10
10
10
10
10
10
10
10
10
10
10
10
10
10
10
10
10
10
10
10
10
10
10
10
10
10
10
10
10
10
10
10
10
10
10
10
10
10
10
10
10
10
10
10
10
10
10
10
10
10
10
10
10
10
10
10
10
10
10
10
10
10
10
10
10
10
10
10
10
10
10
10
10
10
10
10
10
10
10
10
10
10
10
10
10
10
10
10
10
10
10
10
10
10
10
10
10
10
10
10
10
10
10
10
10
10
10
10
10
10
10
10
10
10
10
10
10
10
10
10
10
10
10
10
10
10
10
10
10
10
10
10
10
10
10
10
10
10
10
10
10
10
10
10
10
10
10
10
10
10
10
10
10
10
10
10
10
10
10
10
10
10
10
10
10
10
10
10
10
10
10
10
10
10
10
10
10
10
10
10
10
10
10
10
10
10
10
10
10
10
10
10
10
10
10
10
10
10
10
10
10
10
10
10
10
10
10
10
10
10
10
10
10
10
10
10
10
10
10
10
10
10
10
10
10
10
10
10
10
10

