# vtk DataFile Version 2.0
Deformed SOFA tetrahedral mesh
ASCII
DATASET UNSTRUCTURED_GRID
POINTS 164 double
173.3195683591161 -1.3473906447587496 53.61426834796089
234.40360302160067 77.93633497899961 108.34027541118283
230.92247768208972 77.92338046342708 111.92766099134788
170.0578793182153 -1.1703625629336911 57.39188002905844
1.2265986813088663e-06 -1.084494184981775e-06 -2.50000411662991
-3.712617847367849e-06 1.5422717500866905e-06 2.500003691933647
-2.1702640551142266e-06 159.99999769252506 2.499998416501908
1.2296804161514935e-06 160.00000186020966 -2.4999989021083127
171.71699647448386 159.0236654889268 59.20743465016445
174.85817125929023 159.18730134760918 55.325143508600824
195.31909121996728 4.357836693067792 76.23915155886448
216.03289326719926 21.339240046464333 92.48179828391744
229.52726415651296 47.31480578908573 104.0667565933023
191.8858368899479 4.728848986994075 79.84117496189218
212.65615567710546 21.643246348712808 96.14844074815879
226.07154515745984 47.444609911419136 107.65418472705888
2.726792574660034e-07 133.3333333608695 2.5000032895728768
3.0802139035113317e-06 106.66666503240997 2.500003418613682
1.5144272948158193e-06 80.00000165842874 2.500009309882392
2.4752245196180115e-06 53.3333323288178 2.5000061217975085
3.0580000525830483e-06 26.666667558214765 2.5000018987471964
-3.082841145872777e-06 133.33333516119708 -2.5000045865645153
-6.082647059509111e-06 106.66666691561997 -2.5000082302701236
-5.653061773905432e-06 80.00000067657405 -2.500014061234718
-7.816555569482327e-06 53.33333274723114 -2.50001132733964
-3.4217764717574345e-06 26.666664873311813 -2.500003601110279
150.30334595867942 159.65106545327768 44.00275496463281
127.35727672241825 160.05922995562838 31.053238716247687
103.69675387536326 160.20624840290418 19.885433251637483
78.65895849117673 160.32380309781993 11.735633297884602
52.7391255095824 160.40187694955483 6.124489212120681
26.568526377182124 160.1849377332199 3.0734114964746926
153.04518406598763 159.80223268679447 39.7313923206201
129.6503866868973 160.2590407227695 26.601858263482804
105.5441379834663 160.43258080260097 15.18264715197976
80.05888665980935 160.50109735723188 6.911263904760381
53.58500498970432 160.48514995159945 1.1630625916939563
26.930506182945944 160.23927417258713 -1.9839684354814853
230.04276450907713 108.7286117217104 104.58411167996042
216.97587290094805 134.99042341745655 93.5932562850484
197.17984978241907 152.6671451157353 77.09306413111773
226.582398536072 108.62220401048472 108.18394359006577
213.5485317196614 134.7094620421484 97.22582166804803
193.73542447208473 152.3367759216025 80.72195968012107
26.529050224632655 -0.3209749964581271 2.844158315194921
52.789616773848955 -0.5023388780497612 5.229837904379308
78.40628865492893 -0.7405030485395917 10.097516760133015
103.39359723748389 -0.7826750752135132 17.82564810483884
126.99598659612082 -0.8726119535179195 28.98421462212258
149.1956570048367 -0.9438695468204676 41.803177462083696
26.800660914734753 -0.3162247033931404 -2.185743466257196
53.50025342875316 -0.5255393195643939 0.2586280061906304
79.72752992623705 -0.8393514881146029 5.208409215159788
105.213653087678 -0.9031383506494112 13.0851500751542
129.3216056318261 -0.983862974396315 24.50921825288752
151.9808031218409 -1.0424880998736545 37.51729684563882
120.5846509004133 24.67001546055852 19.249511833596337
163.9516799203938 136.11218280880172 46.28142622844635
93.06212651832152 136.82718744656793 9.80206059264288
66.942664408363 23.118686529797902 2.4375566717522057
161.6928048151123 22.875886992610905 43.79478829268943
24.104822842194533 95.42869962917118 -3.0135675956423147
215.1093052403072 87.70742317504123 89.90004280849038
196.1349279378951 35.49426071793689 73.14079558714394
20.27157301455233 40.35005824725254 -2.8575437598172537
40.70839699895885 137.83737520740223 -0.8840764430650946
197.93162664975014 125.06213403637457 74.96927498086266
66.93359953896076 137.05436060442625 3.3463927009245062
80.14267471849723 113.32327227070479 5.567359770553869
105.98001312598888 113.1518318641853 13.548006891841268
93.23276891228154 90.37138076394206 8.699024774853184
118.47916980938636 90.31184526278525 18.159714847063185
67.87331862143976 89.45540750133844 2.3762013872281855
130.41021892663318 112.94443035963496 24.767236056187578
142.30943843237242 89.23086449250371 30.624979745866426
80.18896792883987 66.01770524043827 4.759452162225313
131.37537611983257 67.16479155087652 24.267962444747738
153.13198946828726 66.01526589090831 37.22637280772716
165.10838097105022 88.9224156629625 45.52164837302243
52.083685564588826 67.1806479117659 -0.3550876824000112
173.98229219644253 65.2132993502426 52.42216383002602
142.20060581196694 41.32090065025637 30.744066528323412
182.7435101548242 86.13562081980551 59.771149504714806
49.61088700374277 111.34541752294173 0.07066106042353082
93.30160137805147 22.513342126414724 8.441207602527347
102.40547839099817 45.68670089566191 11.365710817569404
118.02886884632395 136.54736869215316 19.54799772969723
141.68122787727535 136.33676892127585 32.211284913177046
24.783151870644975 67.68319836201339 -3.035828692823915
153.5104790553755 112.63356956236947 38.48898882389925
178.78053766579097 112.43644053442986 56.701448480019
197.09566385769352 64.89801699795262 72.6185282268888
39.93311850526537 25.429397258953244 -1.4163113340165536
22.421685876735882 120.23813077986303 -2.682073952493427
179.13191092987722 41.662298786964705 57.53877292874477
59.4812776488717 46.23924957573216 1.2143084888833993
80.65150304191884 40.76828587105492 4.975273028272504
107.28543333639186 68.94303503342158 13.189300327737913
182.8212966107747 137.23028764850994 61.837214121246554
141.32294517130825 17.51673515779857 30.7224985299344
43.7936088243772 86.31163208854801 -1.3978906967043772
216.65019444262282 63.539518899314665 91.13042349869845
161.60463496212077 46.564534680982085 43.63918716057202
182.29080485252328 19.180216853476477 61.772811208037794
19.948716309419424 140.17552259395814 -2.5000009688769644
212.44104222981724 111.57775083159115 87.7974069713978
19.569312157425983 19.438300998087225 -2.500018976100738
122.62065738448129 47.79568682982313 20.068552527497182
38.160834115752145 51.909439729366255 -1.5258038027863106
198.28490837490003 98.60374099899427 74.03618880839892
211.38544923160177 43.01652142705883 86.93679011448737
118.4645993625606 134.37067544554523 25.24959721855127
160.15922289014327 22.33212924496096 48.91781558339402
91.44700424262791 22.979406254441166 13.16372452148822
65.91185454206541 136.74444520967575 8.259895475839368
159.66929891142087 135.42503233882016 49.44680164360837
23.833733088682127 64.64808918720642 1.9762580701883263
210.42486347526267 88.83052549944696 92.36445426273654
190.7181960305885 37.07213843551726 74.83395584380253
20.230135226292642 119.64375391030858 2.3000980788537464
40.09057788111203 22.15124388641852 3.682032623251292
193.5722951998539 121.394888554736 77.47672367458601
66.0613648732864 22.93357423158503 7.4010423670633845
79.03610276546108 46.739635176356835 9.730981705723035
103.9774150270443 46.722560345884204 17.306310510993683
91.69030742925345 69.63832339908048 13.238223487654139
116.20423741971895 69.55088415541881 22.39895795104894
66.96781650939818 70.71780951600674 7.190032298098072
127.90467020824062 46.487716240151954 28.281949630314955
139.6471746042232 70.04405500218179 34.66944042519525
79.0376642166686 93.84965103920742 10.001074192549144
129.14390061667063 92.2813537117595 29.148976943416102
150.54770561311275 92.88029599070778 41.79957419170075
162.1103342145213 69.73919035435388 49.46177811133869
51.425040749616066 92.92257625282694 4.7781184813242366
170.6653983322436 92.58631756285044 56.11386055177706
139.81151964528308 117.50748651961652 36.107082556371026
182.54154607040817 67.04631123895238 66.20344915206238
49.0202892859162 48.847977860578155 4.713007220826361
92.06493648176757 137.07734986193023 14.779662425356399
100.90730487622636 113.91210470123926 17.087534152336914
138.60276535822265 22.839076774199643 34.97466538985719
115.84519543491596 22.818725022808263 22.639976698618558
24.714897661870186 92.29164322581738 2.021312174721037
150.3601000586385 46.390470868399916 41.79861512366254
171.21340673799176 43.687120858914085 57.27443137418626
205.92009722258922 61.373070735719615 87.7564725435147
39.44863334979055 134.51921361362824 4.044138278383336
22.206596873513185 39.87153377347122 2.206303184237007
58.61172466935952 113.67332174389668 6.7159550009396565
79.4201485882425 119.1171912360919 10.749939209801052
105.63786596201894 90.8897307619025 18.26964816272922
191.91960831876 92.27131561558141 74.79375322444987
176.25942734923967 115.92474877073838 61.27265068329693
177.1343352073008 21.121489714980868 63.651963756409444
139.38944598857668 141.46612720336975 36.84147208995897
43.34153969453232 74.0042641142241 3.584135895958253
158.9285440611407 111.77281415840457 48.38592026032099
179.67267682326028 137.6481456900858 65.72869383455418
19.94867690972723 19.824490644788142 2.500018021847914
208.79913061092174 110.96490840959576 91.20688150831353
19.56927745319563 140.56168572284028 2.5000017380676254
120.67331509400424 111.51545400904668 25.57444804575413
37.6799397542716 108.16254990006233 3.736140584815052
CELLS 412 2060
4 2 15 146 101
4 138 116 108 148
4 83 93 61 163
4 129 133 144 77
4 141 128 144 81
4 72 79 75 127
4 72 130 134 127
4 135 152 137 82
4 70 151 130 125
4 75 97 70 125
4 73 87 136 89
4 83 68 67 149
4 95 138 122 123
4 74 89 132 78
4 89 90 157 78
4 126 129 128 76
4 131 71 73 74
4 137 82 91 80
4 146 137 152 91
4 90 157 57 89
4 137 145 133 80
4 125 75 123 127
4 72 70 68 130
4 83 100 72 134
4 79 156 138 127
4 133 145 144 102
4 129 131 132 74
4 129 74 77 76
4 78 133 77 80
4 137 146 118 91
4 70 71 69 151
4 125 124 97 126
4 126 71 151 131
4 97 71 126 76
4 132 135 133 78
4 78 90 135 82
4 126 124 107 128
4 162 71 69 73
4 123 95 138 127
4 83 72 68 149
4 100 134 143 156
4 100 88 79 156
4 80 91 137 94
4 125 97 151 126
4 71 70 97 151
4 144 77 102 81
4 97 75 85 125
4 151 140 70 130
4 112 144 145 102
4 152 82 109 91
4 155 33 32 87
4 49 48 141 99
4 71 162 151 131
4 126 107 97 76
4 69 86 162 73
4 132 136 157 89
4 124 142 107 128
4 91 101 146 110
4 68 58 67 150
4 96 122 113 123
4 160 152 121 109
4 131 129 126 76
4 74 131 71 76
4 136 131 162 73
4 128 107 76 81
4 79 95 75 127
4 134 130 72 149
4 43 42 121 66
4 132 133 129 77
4 132 74 78 77
4 56 84 53 142
4 149 147 83 163
4 92 95 108 138
4 111 28 86 139
4 137 118 145 94
4 50 51 92 120
4 31 147 65 30
4 128 142 56 141
4 111 86 87 73
4 155 136 111 87
4 130 150 68 149
4 96 75 95 123
4 141 56 81 99
4 56 107 128 81
4 140 150 68 130
4 75 96 85 123
4 118 154 145 94
4 136 162 111 73
4 135 137 133 80
4 141 112 49 99
4 76 77 129 81
4 136 132 131 74
4 58 68 69 140
4 85 113 124 123
4 129 144 128 81
4 93 83 65 147
4 92 138 148 120
4 142 53 56 54
4 30 147 65 114
4 111 86 28 27
4 90 135 157 78
4 152 109 62 91
4 87 32 155 57
4 14 13 118 63
4 137 135 82 80
4 86 34 27 33
4 158 43 121 66
4 13 154 118 103
4 17 61 119 143
4 88 24 64 116
4 133 77 80 102
4 89 136 73 74
4 154 13 3 103
4 125 130 75 127
4 70 72 75 130
4 95 138 120 122
4 83 67 65 149
4 142 47 53 48
4 84 59 52 113
4 139 29 58 114
4 102 94 145 60
4 113 47 84 142
4 46 47 84 113
4 86 34 28 27
4 93 83 147 163
4 138 108 92 148
4 53 142 48 54
4 113 85 96 123
4 68 58 150 140
4 19 64 148 20
4 120 92 95 122
4 58 86 34 139
4 58 34 35 139
4 21 22 93 119
4 145 80 94 102
4 135 132 157 78
4 147 83 65 149
4 138 92 95 120
4 86 58 69 140
4 85 113 142 124
4 61 23 18 22
4 23 18 19 116
4 103 154 94 60
4 122 52 59 113
4 29 67 58 114
4 122 46 52 113
4 57 98 153 90
4 35 67 58 29
4 100 61 88 143
4 116 88 143 156
4 86 111 139 140
4 84 56 85 142
4 18 17 61 22
4 23 19 24 116
4 40 158 9 98
4 49 112 3 55
4 29 36 35 67
4 52 45 46 122
4 83 134 149 163
4 79 108 95 138
4 45 120 50 44
4 15 146 101 110
4 39 43 66 42
4 36 37 65 30
4 17 18 61 143
4 24 88 23 116
4 43 39 66 40
4 110 14 118 63
4 146 62 101 91
4 47 84 53 46
4 123 124 85 125
4 70 69 68 140
4 47 53 84 142
4 35 28 139 34
4 28 35 139 29
4 84 52 53 46
4 29 36 67 30
4 52 51 45 122
4 28 34 86 139
4 58 86 139 140
4 50 51 120 45
4 31 65 37 30
4 113 84 85 142
4 29 30 67 114
4 51 52 59 122
4 41 160 42 105
4 8 26 32 57
4 60 0 112 55
4 19 25 64 20
4 92 59 95 122
4 152 135 153 90
4 16 7 161 21
4 106 5 4 44
4 6 7 37 161
4 41 39 105 42
4 1 15 101 12
4 5 25 106 4
4 7 16 161 6
4 39 41 105 38
4 4 50 106 44
4 161 37 6 31
4 5 106 159 44
4 104 37 7 161
4 51 120 45 122
4 67 36 65 30
4 30 65 67 114
4 145 133 80 102
4 104 7 21 161
4 14 10 63 11
4 112 0 3 55
4 91 118 94 63
4 32 27 155 26
4 48 49 55 99
4 27 32 155 33
4 25 19 64 24
4 21 17 22 119
4 21 16 17 119
4 26 8 115 57
4 8 40 158 9
4 10 14 63 13
4 162 140 69 151
4 85 107 97 124
4 48 55 54 99
4 152 153 121 109
4 40 8 158 43
4 41 2 117 62
4 40 66 158 98
4 103 118 13 63
4 61 93 22 119
4 116 19 64 148
4 10 3 103 0
4 152 135 90 82
4 119 61 163 143
4 88 64 108 116
4 9 8 32 57
4 115 8 158 57
4 103 13 10 63
4 153 157 57 90
4 158 9 98 57
4 73 136 131 74
4 76 129 128 81
4 77 133 144 102
4 50 92 106 120
4 161 147 65 31
4 144 129 77 81
4 59 84 96 113
4 114 58 139 150
4 98 153 158 57
4 10 3 13 103
4 122 96 95 123
4 150 67 68 149
4 141 56 128 81
4 87 136 111 73
4 42 66 39 105
4 22 17 61 119
4 19 64 24 116
4 56 107 142 128
4 86 111 162 73
4 11 15 12 110
4 38 2 41 62
4 38 2 62 1
4 140 68 70 130
4 123 85 75 125
4 115 158 153 57
4 147 93 163 119
4 108 64 92 148
4 88 100 143 156
4 122 59 96 113
4 114 67 58 150
4 74 132 129 77
4 15 1 101 2
4 153 157 115 57
4 72 83 134 149
4 95 79 138 127
4 156 79 134 127
4 72 100 79 134
4 158 43 66 40
4 133 132 78 77
4 154 112 94 60
4 132 136 89 74
4 157 153 135 90
4 131 126 71 76
4 89 157 132 78
4 128 107 126 76
4 118 137 91 94
4 8 9 158 57
4 162 69 71 151
4 124 107 97 126
4 131 71 162 73
4 112 145 154 94
4 29 58 35 139
4 46 84 52 113
4 130 75 70 125
4 79 72 134 127
4 109 66 121 105
4 154 0 3 112
4 94 112 145 60
4 123 75 95 127
4 130 68 72 149
4 82 90 152 109
4 134 100 79 156
4 102 145 112 60
4 84 85 96 113
4 58 139 150 140
4 59 96 95 122
4 150 114 67 149
4 62 1 2 101
4 153 152 90 109
4 20 25 64 159
4 130 72 75 127
4 11 14 15 110
4 64 148 20 159
4 129 131 74 76
4 104 21 93 119
4 25 106 64 159
4 11 14 110 63
4 135 78 82 80
4 78 135 133 80
4 151 70 97 125
4 140 70 69 151
4 124 97 85 125
4 101 12 15 110
4 163 93 61 119
4 64 108 116 148
4 82 152 137 91
4 109 121 160 105
4 103 94 118 63
4 97 71 151 126
4 80 137 145 94
4 94 118 154 103
4 3 0 154 103
4 146 15 14 110
4 146 14 118 110
4 146 2 62 117
4 146 62 2 101
4 116 138 79 156
4 79 138 116 108
4 79 88 116 156
4 116 88 79 108
4 143 61 134 100
4 143 134 61 163
4 83 134 61 100
4 83 61 134 163
4 152 146 62 117
4 62 146 152 91
4 99 112 81 141
4 99 81 112 60
4 144 81 112 141
4 154 60 0 112
4 0 60 154 103
4 89 136 57 87
4 155 136 57 115
4 155 57 136 87
4 116 23 143 88
4 116 143 23 18
4 61 143 23 88
4 61 23 143 18
4 142 85 107 56
4 107 85 142 124
4 86 140 162 111
4 162 140 86 69
4 27 86 155 111
4 27 155 86 33
4 87 155 86 111
4 87 86 155 33
4 160 62 109 105
4 142 54 99 48
4 99 54 142 56
4 99 141 142 48
4 142 141 99 56
4 92 122 51 59
4 51 122 92 120
4 114 65 149 147
4 114 149 65 67
4 160 62 41 117
4 55 112 99 49
4 55 99 112 60
4 26 57 155 32
4 155 57 26 115
4 41 105 62 160
4 62 105 41 38
4 118 110 91 146
4 118 91 110 63
4 152 62 160 117
4 160 62 152 109
4 66 158 153 121
4 153 158 66 98
4 66 90 153 98
4 25 159 5 106
4 5 159 25 20
4 21 161 119 104
4 119 161 21 16
4 106 44 120 159
4 120 44 106 50
4 161 37 65 104
4 161 65 37 31
4 105 121 42 66
4 105 42 121 160
4 104 119 147 161
4 147 119 104 93
4 147 65 104 161
4 104 65 147 93
4 159 120 92 148
4 92 120 159 106
4 92 64 159 148
4 159 64 92 106
4 81 112 102 144
4 81 102 112 60
4 136 57 157 89
4 136 157 57 115
4 153 66 109 90
4 109 66 153 121
CELL_TYPES 412
10
10
10
10
10
10
10
10
10
10
10
10
10
10
10
10
10
10
10
10
10
10
10
10
10
10
10
10
10
10
10
10
10
10
10
10
10
10
10
10
10
10
10
10
10
10
10
10
10
10
10
10
10
10
10
10
10
10
10
10
10
10
10
10
10
10
10
10
10
10
10
10
10
10
10
10
10
10
10
10
10
10
10
10
10
10
10
10
10
10
10
10
10
10
10
10
10
10
10
10
10
10
10
10
10
10
10
10
10
10
10
10
10
10
10
10
10
10
10
10
10
10
10
10
10
10
10
10
10
10
10
10
10
10
10
10
10
10
10
10
10
10
10
10
10
10
10
10
10
10
10
10
10
10
10
10
10
10
10
10
10
10
10
10
10
10
10
10
10
10
10
10
10
10
10
10
10
10
10
10
10
10
10
10
10
10
10
10
10
10
10
10
10
10
10
10
10
10
10
10
10
10
10
10
10
10
10
10
10
10
10
10
10
10
10
10
10
10
10
10
10
10
10
10
10
10
10
10
10
10
10
10
10
10
10
10
10
10
10
10
10
10
10
10
10
10
10
10
10
10
10
10
10
10
10
10
10
10
10
10
10
10
10
10
10
10
10
10
10
10
10
10
10
10
10
10
10
10
10
10
10
10
10
10
10
10
10
10
10
10
10
10
10
10
10
10
10
10
10
10
10
10
10
10
10
10
10
10
10
10
10
10
10
10
10
10
10
10
10
10
10
10
10
10
10
10
10
10
10
10
10
10
10
10
10
10
10
10
10
10
10
10
10
10
10
10
10
10
10
10
10
10
10
10
10
10
10
10
10
10
10
10
10
10
10
10
10
10
10
10
10
10
10
10
10
10
10
10
10
10
10
10
10
10
10
10
10
10
10
10
10
10
10
10
10
10
10
10
10
10
10
10
10
10
10
10
10
10
10
10
10
10

